<svg width="502" height="327" viewBox="0 0 502 327" fill="none" xmlns="http://www.w3.org/2000/svg">
<path d="M254.309 91.9068C249.833 84.6446 244.529 76.8907 236.223 74.5193C226.603 71.7732 216.722 77.2285 208.34 82.6118C183.273 98.7114 159.134 116.159 136.032 134.874L136.057 135.156C154.043 133.939 172.028 132.723 190.014 131.506C203.009 130.627 216.45 129.626 227.934 123.596C232.292 121.308 236.539 118.251 241.477 118.038C247.612 117.773 252.962 121.977 257.166 126.368C282.033 152.344 289.229 192.068 317.127 214.89C299.535 172.331 278.53 131.208 254.309 91.9068Z" fill="#F2F2F2"/>
<path d="M407.163 312.233C404.413 308.827 403.289 308.029 400.577 304.591C378.49 276.569 357.731 247.6 338.299 217.685C325.099 197.368 312.555 176.661 300.664 155.563C295.004 145.533 289.498 135.424 284.148 125.237C279.996 117.338 275.937 109.391 271.971 101.398C270.836 99.1147 269.734 96.8211 268.637 94.5222C266.053 89.1162 263.517 83.6839 260.794 78.3513C257.691 72.2735 253.913 65.9017 248.215 61.8184C245.622 59.8838 242.521 58.7132 239.275 58.4435C234.636 58.1496 230.356 60.0286 226.332 62.0808C196.895 77.1389 169.335 96.0181 144.408 117.501C119.417 139.031 97.0789 163.356 77.8495 189.978C77.2612 190.802 75.8701 190.015 76.4639 189.186C78.802 185.942 81.1865 182.733 83.6173 179.56C113.843 140.125 150.904 106.213 193.106 79.3748C200.207 74.8611 207.44 70.559 214.807 66.4686C218.521 64.4059 222.25 62.3694 226.043 60.459C229.762 58.5852 233.71 56.9004 237.958 56.8375C252.415 56.617 259.9 72.6776 265.042 83.4845C266.658 86.8855 268.293 90.2761 269.948 93.6562C276.203 106.489 282.698 119.204 289.434 131.803C293.591 139.581 297.839 147.314 302.179 155.002C315.683 178.94 330.036 202.394 345.238 225.364C365.377 255.79 385.355 282.668 408.297 311.12C408.929 311.908 407.8 313.031 407.163 312.233Z" fill="#E4E4E4"/>
<path d="M142.979 109.57C142.139 108.651 141.305 107.733 140.459 106.814C133.793 99.5819 126.639 92.4334 117.485 88.287C113.12 86.2475 108.355 85.164 103.52 85.1116C98.5233 85.1273 93.6385 86.4132 89.0212 88.2135C86.8383 89.069 84.7033 90.04 82.6008 91.074C80.1984 92.2601 77.8388 93.5251 75.4902 94.8005C71.0814 97.1938 66.7298 99.6921 62.4354 102.295C53.8908 107.476 45.6138 113.051 37.6044 119.023C33.4524 122.119 29.3861 125.317 25.4055 128.617C21.7031 131.682 18.0756 134.83 14.523 138.059C13.7633 138.747 12.629 137.634 13.3887 136.947C14.325 136.091 15.272 135.241 16.219 134.401C18.8942 132.029 21.6122 129.702 24.3731 127.42C29.4076 123.253 34.5724 119.247 39.8676 115.401C48.1019 109.418 56.6196 103.84 65.4207 98.6687C69.8188 96.0864 74.2774 93.6125 78.7966 91.2472C80.161 90.5334 81.5415 89.8353 82.9379 89.174C86.1063 87.6062 89.3985 86.2915 92.7824 85.2428C97.5759 83.7216 102.647 83.2329 107.651 83.81C112.482 84.4993 117.137 86.0789 121.369 88.4654C130.358 93.3939 137.329 101.015 144.113 108.452C144.799 109.208 143.669 110.326 142.979 109.57Z" fill="#E4E4E4"/>
<path d="M327.15 184.518L348.689 176.79L359.383 172.953C362.866 171.703 366.34 170.281 369.941 169.386C373.07 168.509 376.392 168.551 379.497 169.505C382.266 170.511 384.801 172.052 386.951 174.038C389.147 176.022 391.19 178.163 393.064 180.443C395.392 183.187 397.686 185.961 399.99 188.725C409.5 200.134 418.948 211.593 428.333 223.101C437.719 234.609 447.041 246.166 456.301 257.771C465.583 269.405 474.802 281.088 483.957 292.819C485.078 294.256 486.199 295.694 487.318 297.133C487.937 297.927 489.331 297.144 488.704 296.338C479.482 284.489 470.195 272.688 460.844 260.936C451.471 249.155 442.032 237.425 432.529 225.744C423.025 214.064 413.458 202.435 403.826 190.856C401.427 187.971 399.023 185.09 396.616 182.211C394.585 179.784 392.577 177.329 390.35 175.07C386.261 170.921 381.153 167.256 375.039 167.156C371.444 167.098 367.965 168.217 364.624 169.402C361.024 170.68 357.431 171.982 353.835 173.272L332.146 181.054L326.724 183C325.761 183.345 326.177 184.867 327.15 184.518L327.15 184.518Z" fill="#E4E4E4"/>
<path d="M114.65 97.3876C103.705 91.8692 89.6877 92.95 79.6296 99.8444C98.8147 103.091 117.79 107.436 136.458 112.856C128.706 108.399 122.642 101.417 114.65 97.3876Z" fill="#F2F2F2"/>
<path d="M79.5218 99.8254L77.4147 101.506C78.1274 100.918 78.8684 100.366 79.6296 99.8444C79.5936 99.8384 79.5578 99.8315 79.5218 99.8254Z" fill="#F2F2F2"/>
<path d="M386.14 184.595C384.019 182.064 381.727 179.413 378.556 178.384L375.595 178.499C398.133 217.568 428.573 251.706 465.047 278.818C438.744 247.41 412.442 216.003 386.14 184.595Z" fill="#F2F2F2"/>
<path d="M202.024 163.71C203.394 168.593 206.481 172.844 210.738 175.709C212.384 176.809 214.331 177.863 214.895 179.737C215.191 180.931 215.008 182.192 214.385 183.258C213.762 184.31 213.005 185.28 212.131 186.144L212.051 186.437C207.967 184.063 204.081 181.059 201.825 176.961C199.569 172.863 199.254 167.492 202.024 163.71" fill="#F2F2F2"/>
<path d="M338.01 279.934C339.38 284.817 342.467 289.067 346.724 291.933C348.37 293.032 350.318 294.087 350.881 295.961C351.177 297.155 350.994 298.415 350.371 299.482C349.748 300.534 348.991 301.504 348.117 302.368L348.038 302.661C343.953 300.287 340.067 297.283 337.811 293.185C335.555 289.087 335.24 283.716 338.01 279.934" fill="#F2F2F2"/>
<path d="M66.6213 271.918C67.9915 276.802 71.0783 281.052 75.3356 283.918C76.9815 285.017 78.9289 286.072 79.492 287.945C79.7882 289.14 79.6057 290.4 78.9821 291.466C78.3597 292.519 77.6023 293.489 76.7285 294.353L76.6488 294.646C72.5643 292.271 68.6785 289.268 66.4222 285.17C64.166 281.072 63.851 275.701 66.6213 271.918" fill="#F2F2F2"/>
<path d="M378.922 58.3982C395.361 58.3982 408.687 45.3253 408.687 29.1991C408.687 13.0729 395.361 0 378.922 0C362.483 0 349.157 13.0729 349.157 29.1991C349.157 45.3253 362.483 58.3982 378.922 58.3982Z" fill="#EDD766"/>
<path d="M432.637 6.79611C418.212 4.88332 401.742 12.5321 398.004 26.3329C397.061 23.8791 395.348 21.7827 393.112 20.3465C390.876 18.9103 388.232 18.2088 385.562 18.3431C382.893 18.4775 380.336 19.4409 378.261 21.0941C376.187 22.7473 374.701 25.0047 374.02 27.5402L375.672 28.7005C406.585 35.2585 438.585 35.1165 469.437 28.2847C459.403 17.9396 447.063 8.70887 432.637 6.79611Z" fill="#F0F0F0"/>
<path d="M370.772 45.7282C356.347 43.8154 339.877 51.4642 336.139 65.265C335.196 62.8112 333.483 60.7148 331.247 59.2787C329.011 57.8425 326.367 57.1409 323.697 57.2753C321.028 57.4097 318.471 58.373 316.396 60.0262C314.322 61.6794 312.836 63.9368 312.155 66.4723L313.807 67.6327C344.72 74.1906 376.72 74.0487 407.572 67.2168C397.538 56.8718 385.198 47.641 370.772 45.7282Z" fill="#F0F0F0"/>
<path d="M496.677 53.0899C496.617 53.09 496.558 53.081 496.501 53.063C342.185 5.18905 206.177 11.4494 119.253 25.1315C107.424 26.9928 95.5629 29.1425 83.9997 31.5216C81.0476 32.1282 77.9849 32.7784 74.8969 33.4555C71.2091 34.2612 67.5702 35.0909 64.081 35.9207C62.574 36.2707 61.0965 36.6235 59.6484 36.9791C57.455 37.5102 55.2293 38.0637 52.8435 38.672C50.1775 39.3463 47.4688 40.0536 44.7909 40.7743C44.7811 40.7777 44.7711 40.7805 44.761 40.7827L44.7612 40.7833C41.7365 41.5934 38.7277 42.4271 35.8181 43.2596C34.2433 43.7057 32.7227 44.1458 31.2662 44.5802C31.1035 44.6244 30.9593 44.6669 30.8131 44.7105L30.5002 44.8038C30.3189 44.8581 30.14 44.9112 29.961 44.9615L29.9496 44.9649L29.9499 44.9654L29.4762 45.1097C28.9114 45.2775 28.3603 45.4413 27.8183 45.6045C13.4931 49.9365 5.61801 53.0184 5.54021 53.0485C5.46907 53.0765 5.39301 53.0905 5.31637 53.0896C5.23973 53.0887 5.16402 53.0731 5.09355 53.0435C5.02308 53.014 4.95923 52.9711 4.90566 52.9173C4.85209 52.8635 4.80984 52.7999 4.78132 52.7301C4.7528 52.6603 4.73859 52.5857 4.73946 52.5105C4.74034 52.4354 4.75631 52.3611 4.78645 52.292C4.81659 52.2228 4.86031 52.1602 4.91513 52.1077C4.96994 52.0551 5.03477 52.0136 5.10591 51.9857C5.18428 51.9555 13.0978 48.858 27.4751 44.5098C28.0192 44.346 28.5717 44.1821 29.1383 44.0139L29.5783 43.8797C29.5934 43.8741 29.6085 43.8696 29.6239 43.8651C29.802 43.8154 29.9798 43.7623 30.1605 43.7086L30.4739 43.6152C30.6301 43.5688 30.784 43.523 30.9416 43.4805C32.3881 43.0488 33.9139 42.6077 35.4927 42.1598C38.4034 41.3268 41.4151 40.4931 44.4421 39.6818C44.4515 39.6785 44.4612 39.6763 44.4706 39.6735V39.6729C47.1579 38.95 49.8766 38.2399 52.5511 37.5634C54.9406 36.9545 57.1705 36.3999 59.3677 35.8676C60.822 35.5125 62.3023 35.159 63.8088 34.8069C67.302 33.9761 70.9483 33.1453 74.6427 32.3379C77.7356 31.6602 80.8034 31.0083 83.7603 30.4011C95.3414 28.0182 107.221 25.8651 119.068 24.001C206.116 10.2993 342.319 4.02887 496.853 51.9717C496.986 52.0128 497.099 52.0992 497.173 52.2153C497.246 52.3314 497.275 52.4695 497.254 52.6046C497.233 52.7397 497.163 52.8629 497.057 52.9519C496.951 53.0409 496.817 53.0899 496.677 53.0899Z" fill="#CCCCCC"/>
<path d="M153.489 240.371C153.286 239.792 152.946 239.268 152.496 238.843C152.33 238.692 152.151 238.556 151.959 238.436C150.436 237.44 148.16 237.217 146.713 238.436C146.567 238.56 146.432 238.696 146.31 238.843C145.878 239.364 145.434 239.873 144.979 240.371C144.232 241.207 143.468 242.015 142.668 242.799C142.44 243.016 142.213 243.24 141.979 243.457C141.845 243.589 141.711 243.715 141.577 243.841C141.063 244.322 140.538 244.786 140.007 245.244C139.727 245.49 139.446 245.73 139.16 245.965C138.734 246.314 138.308 246.664 137.876 247.001C137.836 247.03 137.795 247.059 137.754 247.093C137.742 247.099 137.736 247.11 137.725 247.116C137.719 247.116 137.713 247.116 137.707 247.127C137.691 247.133 137.677 247.143 137.666 247.156C137.538 247.242 137.45 247.299 137.386 247.351C137.41 247.339 137.433 247.322 137.456 247.31C137.351 247.391 137.24 247.471 137.135 247.551C136.114 248.29 135.069 248.999 134.001 249.664C131.359 251.323 128.583 252.768 125.702 253.986C125.509 254.061 125.311 254.141 125.112 254.215C117.569 257.247 109.386 258.43 101.271 257.662C100.442 257.599 99.6135 257.513 98.7848 257.404C97.8276 257.267 96.8763 257.101 95.9308 256.912C92.3314 256.207 88.8094 255.164 85.4138 253.797C81.1662 251.889 77.1263 249.564 73.356 246.858C72.7723 246.452 72.1829 246.045 71.5934 245.65C72.2646 244.036 72.9241 242.421 73.5661 240.795C73.8871 240.011 74.1964 239.226 74.4999 238.436C76.8869 232.35 79.1281 226.207 81.2758 220.041C83.447 213.795 85.4955 207.512 87.4215 201.193C87.6199 200.552 87.8125 199.911 87.9993 199.269C89.009 195.932 89.9778 192.586 90.9058 189.233C90.9933 188.907 91.0867 188.586 91.1684 188.26C91.4369 187.298 91.6995 186.336 91.9563 185.374C92.5399 183.204 91.2209 180.611 88.8981 180.09C87.7797 179.808 86.5937 179.964 85.5899 180.523C84.5861 181.083 83.8429 182.003 83.517 183.09C83.266 184.017 83.0151 184.939 82.7583 185.866C81.5268 190.349 80.2311 194.817 78.8713 199.269C78.6728 199.911 78.4744 200.552 78.276 201.193C75.2761 210.892 71.9825 220.493 68.3951 229.997C67.9632 231.148 67.5255 232.295 67.0819 233.438C66.866 233.999 66.65 234.56 66.4282 235.121C66.0022 236.226 65.5645 237.331 65.1268 238.436C64.8758 239.083 64.619 239.73 64.3622 240.371C64.193 240.778 64.0295 241.184 63.8661 241.585C62.2021 240.999 60.478 240.592 58.7243 240.371L58.4442 240.337C57.0845 240.177 55.7095 240.188 54.3529 240.371C52.3225 240.604 50.3689 241.271 48.6302 242.326C46.8916 243.38 45.4103 244.797 44.2911 246.475C41.5072 250.774 41.5422 256.923 45.4467 260.576C49.4679 264.338 55.5552 264.309 60.2885 261.956C62.7968 260.625 64.9118 258.68 66.4282 256.311C67.0092 255.452 67.5431 254.563 68.0274 253.648C68.15 253.729 68.2725 253.809 68.3951 253.895C68.862 254.215 69.3289 254.542 69.79 254.862C72.4764 256.771 75.3075 258.477 78.2585 259.963C84.6037 263.058 91.4339 265.084 98.4638 265.958C98.6214 265.975 98.7731 265.998 98.9307 266.015C99.7069 266.112 100.489 266.187 101.271 266.25C112.49 267.079 123.722 264.827 133.709 259.746C134.556 259.316 135.394 258.866 136.225 258.395C137.515 257.662 138.775 256.883 140.007 256.059C140.678 255.612 141.332 255.16 141.979 254.685C144.81 252.639 147.449 250.35 149.864 247.843C150.781 246.898 151.658 245.923 152.496 244.917C153.289 244.095 153.746 243.015 153.78 241.883C153.776 241.366 153.677 240.854 153.489 240.371ZM56.845 254.009C56.9676 253.923 57.0901 253.832 57.2069 253.74C57.1719 253.826 57.0026 253.923 56.845 254.009H56.845ZM58.7185 252.16C58.5842 252.309 58.4617 252.458 58.3274 252.606C57.9191 253.055 57.4803 253.476 57.0143 253.866C56.9501 253.923 56.88 253.98 56.81 254.032C56.8092 254.032 56.8085 254.032 56.8077 254.032C56.807 254.033 56.8064 254.033 56.8058 254.034C56.8053 254.034 56.8049 254.035 56.8046 254.036C56.8043 254.036 56.8041 254.037 56.8042 254.038C56.7199 254.075 56.638 254.117 56.559 254.164C56.3081 254.313 56.0513 254.45 55.7887 254.576C55.2744 254.762 54.7454 254.905 54.207 255.005C53.7933 255.035 53.3781 255.039 52.9639 255.017H52.9522C52.6663 254.955 52.3839 254.878 52.1059 254.788C51.9659 254.719 51.8316 254.639 51.6974 254.559C51.6449 254.513 51.5981 254.467 51.569 254.438C51.512 254.387 51.4593 254.332 51.4115 254.272C51.4115 254.272 51.4113 254.271 51.411 254.27C51.4107 254.27 51.4103 254.269 51.4098 254.268C51.4092 254.268 51.4086 254.267 51.4079 254.267C51.4071 254.267 51.4064 254.267 51.4056 254.267C51.3414 254.152 51.2713 254.038 51.2072 253.923C51.2038 253.92 51.2018 253.916 51.2013 253.912C51.1546 253.769 51.1138 253.62 51.0788 253.471C51.0661 253.21 51.0681 252.948 51.0846 252.687C51.1629 252.321 51.2683 251.961 51.3998 251.61C51.5179 251.361 51.6525 251.12 51.8025 250.889C51.8141 250.866 51.8725 250.774 51.9367 250.671C51.9426 250.666 51.9425 250.666 51.9425 250.66C52.0301 250.562 52.1176 250.459 52.211 250.368C52.3686 250.196 52.5379 250.047 52.7071 249.893C53.0363 249.681 53.3773 249.488 53.7285 249.314C54.2856 249.12 54.8574 248.969 55.4385 248.862C56.2955 248.795 57.1568 248.803 58.0123 248.885C58.8227 249.023 59.6222 249.216 60.4052 249.463C59.9307 250.367 59.3904 251.235 58.7885 252.062C58.7652 252.097 58.7418 252.131 58.7185 252.16ZM52.2285 250.276C52.1771 250.357 52.1164 250.432 52.0476 250.499C52.0939 250.415 52.1551 250.339 52.2285 250.276Z" fill="#3F3D56"/>
<path d="M135.945 181.899C135.892 183.697 135.84 185.494 135.787 187.292C135.676 191.283 135.561 195.275 135.443 199.27C135.32 203.764 135.192 208.256 135.057 212.747C134.993 215.066 134.927 217.384 134.859 219.703C134.678 225.95 134.499 232.194 134.322 238.436C134.305 239.083 134.281 239.725 134.264 240.372C134.176 243.469 134.089 246.566 134.001 249.664C133.902 253.024 133.805 256.385 133.709 259.746C133.639 262.265 133.567 264.786 133.493 267.309C132.968 285.59 132.443 303.871 131.918 322.152C131.895 323.284 131.427 324.364 130.611 325.164C129.795 325.965 128.694 326.424 127.54 326.446C126.382 326.437 125.274 325.981 124.455 325.178C123.637 324.375 123.172 323.288 123.163 322.152C123.455 311.869 123.751 301.587 124.05 291.304C124.313 282.006 124.579 272.708 124.85 263.41C124.937 260.347 125.025 257.282 125.112 254.215C125.247 249.601 125.379 244.986 125.509 240.372C125.527 239.725 125.55 239.083 125.568 238.436C125.579 237.87 125.597 237.309 125.614 236.742C125.871 227.782 126.128 218.82 126.385 209.856C126.49 206.329 126.591 202.8 126.688 199.27C126.805 195.245 126.922 191.222 127.038 187.201C127.091 185.431 127.138 183.668 127.19 181.899C127.212 180.767 127.681 179.687 128.497 178.887C129.313 178.086 130.413 177.627 131.567 177.605C132.725 177.614 133.833 178.069 134.652 178.873C135.471 179.676 135.935 180.763 135.945 181.899Z" fill="#3F3D56"/>
<path d="M376.067 183.09C371.477 200.14 365.991 216.946 359.631 233.439C357.876 237.989 356.081 242.53 354.162 247.015L354.603 245.99C353.747 248.126 352.653 250.164 351.341 252.065C351.252 252.188 351.161 252.309 351.068 252.429C351.522 251.861 351.608 251.748 351.327 252.092C351.179 252.264 351.032 252.437 350.879 252.605C350.47 253.054 350.032 253.475 349.566 253.866C349.449 253.965 349.33 254.061 349.209 254.155L349.757 253.738C349.693 253.885 349.247 254.08 349.108 254.163C348.659 254.429 348.19 254.662 347.705 254.861L348.751 254.428C347.956 254.742 347.128 254.965 346.281 255.092L347.445 254.939C346.613 255.052 345.77 255.061 344.936 254.965L346.1 255.119C345.418 255.026 344.75 254.85 344.113 254.594L345.158 255.026C344.818 254.881 344.491 254.71 344.179 254.513C344.02 254.412 343.533 254.051 344.17 254.528C344.831 255.023 344.255 254.57 344.119 254.438C344.005 254.329 343.903 254.209 343.792 254.098C343.277 253.58 344.374 254.989 344.024 254.383C343.837 254.079 343.666 253.767 343.511 253.446L343.952 254.472C343.752 253.984 343.609 253.474 343.527 252.954L343.684 254.095C343.6 253.448 343.6 252.793 343.682 252.146L343.526 253.287C343.633 252.565 343.828 251.857 344.106 251.18L343.665 252.206C343.859 251.751 344.089 251.311 344.353 250.89C344.474 250.673 344.616 250.467 344.778 250.277C344.806 250.286 344.037 251.143 344.445 250.71C344.552 250.597 344.652 250.478 344.76 250.366C344.933 250.186 345.118 250.022 345.3 249.851C345.91 249.282 344.447 250.404 345.15 249.954C345.66 249.625 346.197 249.338 346.755 249.096L345.709 249.528C346.644 249.152 347.624 248.894 348.625 248.761L347.461 248.915C348.715 248.773 349.982 248.788 351.232 248.959L350.068 248.805C351.651 249.041 353.198 249.467 354.674 250.076L353.628 249.643C356.774 250.968 359.56 252.935 362.341 254.864C365.027 256.772 367.857 258.476 370.807 259.963C377.153 263.058 383.983 265.085 391.014 265.959C401.096 267.171 411.328 265.879 420.769 262.203C430.21 258.526 438.559 252.583 445.05 244.918C445.841 244.094 446.298 243.013 446.332 241.881C446.323 240.744 445.863 239.655 445.05 238.845C443.444 237.399 440.41 236.991 438.859 238.845C437.389 240.605 435.809 242.274 434.128 243.842C433.343 244.572 432.537 245.28 431.71 245.966C431.238 246.357 430.759 246.741 430.274 247.117C430.045 247.295 429.329 247.769 430.428 247.004C430.176 247.179 429.935 247.371 429.686 247.551C426.01 250.209 422.027 252.431 417.82 254.172L418.865 253.739C414.35 255.597 409.608 256.871 404.758 257.531L405.922 257.377C400.933 258.021 395.878 258.014 390.891 257.355L392.055 257.509C387.069 256.837 382.192 255.534 377.548 253.633L378.593 254.065C374.111 252.12 369.857 249.703 365.907 246.857C363.851 245.363 361.683 244.025 359.421 242.852C356.786 241.532 353.933 240.681 350.995 240.34C345.486 239.704 339.872 241.809 336.844 246.477C334.057 250.774 334.093 256.922 337.996 260.576C342.016 264.339 348.103 264.307 352.841 261.953C357.403 259.686 360.144 254.977 362.071 250.536C366.408 240.542 370.248 230.318 373.825 220.041C377.365 209.874 380.574 199.604 383.454 189.232C383.811 187.947 384.162 186.661 384.509 185.373C385.093 183.204 383.773 180.61 381.452 180.091C380.333 179.809 379.146 179.964 378.141 180.523C377.137 181.083 376.393 182.003 376.067 183.09L376.067 183.09Z" fill="#3F3D56"/>
<path d="M419.742 181.899L418.166 236.743L416.599 291.302L415.713 322.152C415.723 323.288 416.187 324.375 417.006 325.178C417.824 325.981 418.932 326.437 420.09 326.446C421.244 326.424 422.344 325.965 423.16 325.164C423.977 324.364 424.445 323.284 424.467 322.152L426.043 267.308L427.61 212.749L428.496 181.899C428.486 180.763 428.022 179.676 427.203 178.873C426.385 178.07 425.277 177.614 424.119 177.605C422.965 177.627 421.865 178.086 421.049 178.887C420.232 179.687 419.764 180.767 419.742 181.899Z" fill="#3F3D56"/>
<path opacity="0.2" d="M268.232 306.839H269.591V246.127H301.299V244.797H269.591V219.18H294.078C293.719 218.732 293.35 218.29 292.97 217.853H269.591V200.933C269.142 200.745 268.689 200.564 268.232 200.393V217.853H241.588V196.174C241.132 196.195 240.682 196.226 240.229 196.263V217.853H218.973V201.679C218.516 201.877 218.067 202.086 217.621 202.304V217.853H199.752V219.18H217.621V244.797H199.752V246.127H217.621V306.839H218.973V246.127C221.765 246.127 224.529 246.666 227.108 247.713C229.687 248.761 232.031 250.297 234.004 252.233C235.978 254.17 237.544 256.469 238.612 258.999C239.68 261.529 240.229 264.241 240.229 266.979V306.839H241.588V246.127H268.232V306.839ZM218.973 244.797V219.18H240.229V244.797H218.973ZM241.588 244.797V219.18H242.121C245.551 219.18 248.946 219.843 252.114 221.13C255.282 222.418 258.161 224.305 260.585 226.684C263.01 229.063 264.933 231.887 266.245 234.995C267.557 238.102 268.232 241.433 268.232 244.797H241.588Z" fill="black"/>
<path d="M259.931 288.636C258.22 296.124 254.121 302.882 248.23 307.93C247.798 308.297 247.366 308.652 246.916 309.001C245.825 309.098 244.741 309.197 243.666 309.299C242.773 309.379 241.891 309.465 241.016 309.545L240.858 309.562L240.747 308.623L240.304 304.821C238.583 302.066 237.517 298.965 237.183 295.75C236.85 292.535 237.258 289.288 238.378 286.248C239.919 282.172 242.708 278.571 245.451 274.998C249.239 270.063 252.922 265.185 253.056 259.168C254.92 261.507 256.47 264.072 257.667 266.8C256.537 267.321 255.522 268.055 254.679 268.958C254.439 269.216 254.2 269.576 254.364 269.886C254.504 270.149 254.854 270.212 255.157 270.246C255.887 270.321 256.622 270.395 257.352 270.469C257.935 270.532 258.519 270.59 259.103 270.653C259.809 272.926 260.288 275.262 260.533 277.626C260.926 281.304 260.723 285.02 259.931 288.636Z" fill="#3F3D56"/>
<path d="M279.308 273.63C275.864 276.086 273.851 279.619 272.287 283.512C270.684 284.015 269.242 284.919 268.102 286.134C267.863 286.392 267.624 286.752 267.787 287.061C267.927 287.325 268.277 287.388 268.581 287.422C269.31 287.497 270.046 287.571 270.775 287.645C269.211 292.249 267.775 297.012 265.009 300.899C263.169 303.466 260.771 305.6 257.988 307.146C257.229 307.57 256.446 307.95 255.642 308.285C252.677 308.508 249.768 308.747 246.916 309.001C245.825 309.098 244.741 309.197 243.666 309.298C242.773 309.379 241.891 309.465 241.016 309.545C241.01 309.23 241.01 308.915 241.016 308.6C241.201 300.212 244.346 292.146 249.916 285.779C250.179 285.481 250.447 285.189 250.722 284.897C253.544 281.94 256.862 279.481 260.533 277.626C266.316 274.676 272.798 273.296 279.308 273.63Z" fill="#6C63FF"/>
<path d="M244.675 306.361L244.004 308.308L243.666 309.299C242.773 309.379 241.891 309.465 241.016 309.545L240.858 309.562C239.889 309.659 238.926 309.757 237.963 309.854C237.713 309.568 237.462 309.276 237.216 308.978C231.125 301.741 228.2 292.433 229.083 283.088C229.965 273.743 234.583 265.12 241.926 259.105C241.156 263.061 242.055 266.851 243.531 270.613C243.374 270.676 243.222 270.739 243.076 270.807C241.946 271.329 240.931 272.062 240.088 272.966C239.849 273.223 239.609 273.584 239.773 273.893C239.913 274.157 240.263 274.22 240.567 274.254C241.296 274.328 242.031 274.403 242.761 274.477C243.345 274.54 243.928 274.597 244.512 274.66C244.786 274.689 245.06 274.718 245.335 274.746C245.376 274.832 245.411 274.912 245.452 274.998C247.115 278.536 248.907 282.092 249.916 285.779C250.169 286.704 250.368 287.643 250.512 288.59C250.961 291.792 250.67 295.052 249.659 298.129C248.649 301.205 246.946 304.019 244.675 306.361Z" fill="#6C63FF"/>
<path d="M303.423 223.322C298.398 213.708 290.614 205.619 281.459 199.674C272.275 193.738 261.736 190.123 250.782 189.151C249.346 189.023 247.907 188.948 246.464 188.926C244.759 188.901 219.111 196.158 210.519 202.084C201.933 207.938 194.869 215.69 189.898 224.715C184.936 233.789 182.495 243.984 182.821 254.276C183.247 264.631 186.189 274.735 191.402 283.748C196.545 292.731 203.846 300.347 212.672 305.931C221.624 311.534 230.616 326.391 241.185 326.915C251.834 327.444 263.978 313.429 273.691 309.174C283.403 304.884 291.799 298.171 298.043 289.705C304.11 281.409 308.035 271.793 309.482 261.681C310.984 251.328 310.284 240.651 306.679 230.755C305.755 228.213 304.667 225.73 303.423 223.322C302.384 221.315 299.339 220.576 297.434 221.781C296.452 222.375 295.741 223.316 295.448 224.41C295.156 225.504 295.304 226.667 295.863 227.656C296.473 228.835 297.04 230.033 297.565 231.251L297.124 230.225C299.108 234.905 300.457 239.821 301.137 244.846L300.981 243.705C301.704 249.156 301.691 254.678 300.942 260.126L301.098 258.985C300.342 264.433 298.859 269.76 296.689 274.829L297.13 273.803C296.014 276.39 294.713 278.896 293.237 281.303C292.488 282.518 291.695 283.706 290.855 284.865C290.486 285.373 290.106 285.873 289.723 286.371C289.224 287.021 290.405 285.522 289.888 286.16C289.8 286.268 289.713 286.377 289.625 286.485C289.359 286.811 289.091 287.133 288.818 287.452C286.998 289.581 285.013 291.569 282.879 293.397C282.347 293.852 281.807 294.297 281.257 294.731C280.984 294.948 280.714 295.174 280.428 295.375C280.439 295.368 281.35 294.688 280.811 295.083C280.641 295.207 280.473 295.332 280.303 295.456C279.171 296.279 278.009 297.06 276.817 297.799C274.071 299.495 271.192 300.972 268.205 302.215L269.25 301.782C264.098 303.91 258.683 305.363 253.144 306.105L254.308 305.952C248.772 306.686 243.161 306.696 237.622 305.981L238.786 306.134C233.752 305.471 228.828 304.165 224.139 302.25L225.185 302.683C222.469 301.558 219.851 300.219 217.355 298.68C216.12 297.917 214.917 297.106 213.746 296.248C213.579 296.126 213.413 296.002 213.247 295.879C212.713 295.483 213.631 296.171 213.638 296.175C213.328 295.957 213.029 295.723 212.742 295.474C212.177 295.022 211.62 294.56 211.072 294.088C208.88 292.194 206.833 290.145 204.948 287.956C204.476 287.409 204.014 286.853 203.563 286.29C203.367 286.046 203.01 285.551 203.799 286.593C203.695 286.456 203.587 286.321 203.482 286.185C203.231 285.858 202.983 285.528 202.738 285.196C201.881 284.032 201.066 282.84 200.294 281.62C198.549 278.857 197.025 275.965 195.738 272.97L196.18 273.995C194.073 269.079 192.633 263.914 191.895 258.63L192.052 259.772C191.386 254.902 191.377 249.967 192.024 245.095L191.867 246.236C192.53 241.518 193.824 236.905 195.716 232.519L195.275 233.544C196.465 230.798 197.869 228.146 199.474 225.611C200.278 224.343 201.129 223.105 202.029 221.899C202.233 221.624 202.44 221.352 202.649 221.081C202.838 220.836 203.358 220.226 202.471 221.304C202.558 221.198 202.642 221.089 202.727 220.983C203.221 220.369 203.727 219.765 204.245 219.171C206.204 216.92 208.327 214.811 210.596 212.861C211.17 212.368 211.752 211.885 212.344 211.413C212.613 211.198 212.884 210.986 213.156 210.776C213.265 210.692 213.375 210.609 213.484 210.525C212.318 211.435 213.16 210.772 213.424 210.578C214.644 209.682 215.896 208.83 217.18 208.024C220.036 206.232 223.04 204.679 226.16 203.382L225.115 203.814C229.644 201.949 249.709 197.546 253.359 198.026L252.195 197.873C257.559 198.608 262.802 200.029 267.79 202.1L266.744 201.667C269.272 202.72 271.728 203.93 274.098 205.29C275.282 205.971 276.443 206.689 277.581 207.445C278.119 207.802 278.652 208.167 279.179 208.541C279.442 208.728 279.704 208.916 279.965 209.107C280.109 209.213 280.253 209.32 280.397 209.427C281.004 209.873 279.562 208.781 280.198 209.274C282.326 210.914 284.347 212.683 286.249 214.572C287.183 215.505 288.085 216.468 288.955 217.46C289.401 217.969 289.838 218.486 290.266 219.01C290.479 219.271 291.203 220.213 290.315 219.059C290.532 219.341 290.752 219.621 290.966 219.905C292.81 222.354 294.448 224.947 295.863 227.656C296.91 229.659 299.941 230.406 301.852 229.197C302.834 228.604 303.546 227.663 303.838 226.568C304.131 225.474 303.982 224.311 303.423 223.322Z" fill="#3F3D56"/>
<path d="M252.419 293.397C251.967 293.417 251.52 293.301 251.138 293.063C250.755 292.826 250.457 292.479 250.282 292.07C250.108 291.66 250.066 291.208 250.162 290.775C250.258 290.341 250.488 289.947 250.82 289.646C250.876 289.429 250.916 289.273 250.971 289.056C250.951 289.009 250.931 288.962 250.911 288.915C248.88 284.164 235.921 297.407 235.36 301.872C235.114 303.846 235.218 305.846 235.668 307.785C231.47 298.802 229.29 289.039 229.276 279.157C229.275 276.677 229.416 274.199 229.697 271.735C229.929 269.715 230.252 267.709 230.664 265.717C232.914 254.912 237.745 244.784 244.759 236.165C248.771 236.385 252.287 235.785 252.627 228.158C252.687 226.802 253.713 225.627 253.939 224.29C253.556 224.34 253.167 224.37 252.784 224.395C252.664 224.401 252.539 224.407 252.419 224.413L252.374 224.415C251.954 224.434 251.536 224.333 251.172 224.124C250.809 223.915 250.514 223.608 250.325 223.239C250.135 222.87 250.058 222.455 250.103 222.044C250.149 221.633 250.314 221.243 250.579 220.922C250.745 220.723 250.91 220.523 251.076 220.324C251.327 220.016 251.584 219.714 251.836 219.406C251.865 219.377 251.892 219.346 251.917 219.314C252.206 218.962 252.495 218.618 252.784 218.266C252.256 217.464 251.547 216.791 250.712 216.302C247.817 214.639 243.824 215.791 241.733 218.359C239.636 220.927 239.241 224.531 239.969 227.739C240.685 230.47 241.87 233.061 243.472 235.402C243.315 235.599 243.152 235.79 242.995 235.987C240.126 239.606 237.625 243.493 235.528 247.591C236.122 243.046 228.868 226.632 226.063 223.155C222.694 218.979 215.785 220.801 215.191 226.095C215.185 226.146 215.18 226.198 215.174 226.249C215.591 226.479 215.999 226.724 216.398 226.983C216.899 227.312 217.288 227.781 217.512 228.33C217.737 228.879 217.787 229.481 217.657 230.059C217.527 230.636 217.221 231.162 216.782 231.566C216.342 231.97 215.787 232.235 215.191 232.325L215.13 232.334C209.553 240.146 227.432 260.477 231.907 255.912C229.801 261.768 228.479 267.867 227.977 274.057C227.692 277.709 227.709 281.377 228.027 285.027L228.008 284.897C227.014 276.949 209.955 265.132 204.974 266.116C202.105 266.683 199.278 266.554 199.714 269.394C199.721 269.439 199.728 269.485 199.735 269.53C200.508 269.839 201.261 270.195 201.989 270.596C202.406 270.826 202.814 271.071 203.213 271.33C203.714 271.658 204.102 272.128 204.327 272.677C204.552 273.225 204.602 273.828 204.472 274.405C204.341 274.983 204.036 275.508 203.596 275.913C203.156 276.317 202.602 276.582 202.006 276.672L201.945 276.681C201.901 276.687 201.864 276.693 201.82 276.699C199.281 285.268 218.107 299.097 229.553 294.697H229.559C230.693 299.532 232.336 304.238 234.462 308.74H251.98C252.043 308.549 252.099 308.352 252.156 308.161C250.534 308.261 248.906 308.166 247.309 307.877C248.608 306.313 249.908 304.736 251.208 303.172C251.237 303.143 251.264 303.112 251.289 303.079C251.948 302.279 252.614 301.484 253.273 300.683L253.274 300.682C253.309 298.228 253.022 295.779 252.419 293.397L252.419 293.397ZM232.359 254.686L232.368 254.674L232.359 254.698V254.686ZM228.479 288.999L228.328 288.667C228.334 288.427 228.334 288.186 228.328 287.94C228.328 287.872 228.316 287.804 228.316 287.737C228.372 288.162 228.422 288.587 228.485 289.012L228.479 288.999Z" fill="#3F3D56"/>
<path d="M55.5902 257.639C59.1358 257.639 62.0102 254.819 62.0102 251.341C62.0102 247.863 59.1358 245.043 55.5902 245.043C52.0446 245.043 49.1703 247.863 49.1703 251.341C49.1703 254.819 52.0446 257.639 55.5902 257.639Z" fill="#3F3D56"/>
<path d="M132.63 326.343C136.175 326.343 139.05 323.523 139.05 320.045C139.05 316.567 136.175 313.747 132.63 313.747C129.084 313.747 126.21 316.567 126.21 320.045C126.21 323.523 129.084 326.343 132.63 326.343Z" fill="#3F3D56"/>
<path d="M425.029 326.343C428.575 326.343 431.449 323.523 431.449 320.045C431.449 316.567 428.575 313.747 425.029 313.747C421.484 313.747 418.609 316.567 418.609 320.045C418.609 323.523 421.484 326.343 425.029 326.343Z" fill="#3F3D56"/>
<path d="M440.787 246.188C444.333 246.188 447.207 243.369 447.207 239.891C447.207 236.412 444.333 233.593 440.787 233.593C437.242 233.593 434.367 236.412 434.367 239.891C434.367 243.369 437.242 246.188 440.787 246.188Z" fill="#3F3D56"/>
<path d="M422.111 187.79C425.657 187.79 428.531 184.971 428.531 181.492C428.531 178.014 425.657 175.195 422.111 175.195C418.565 175.195 415.691 178.014 415.691 181.492C415.691 184.971 418.565 187.79 422.111 187.79Z" fill="#3F3D56"/>
<path d="M154.224 239.891C154.22 241.499 153.586 243.045 152.453 244.208C151.32 245.371 149.774 246.061 148.136 246.137C146.498 246.214 144.893 245.669 143.653 244.616C142.412 243.564 141.632 242.084 141.474 240.482C141.315 238.881 141.79 237.282 142.8 236.014C143.81 234.747 145.278 233.909 146.901 233.674C148.523 233.439 150.175 233.825 151.516 234.752C152.856 235.679 153.782 237.076 154.101 238.654C154.184 239.061 154.225 239.475 154.224 239.891Z" fill="#3F3D56"/>
<path d="M282.623 206.111C286.169 206.111 289.043 203.292 289.043 199.813C289.043 196.335 286.169 193.516 282.623 193.516C279.077 193.516 276.203 196.335 276.203 199.813C276.203 203.292 279.077 206.111 282.623 206.111Z" fill="#3F3D56"/>
<path d="M219.007 199.813C219.003 201.422 218.369 202.968 217.236 204.131C216.103 205.293 214.557 205.984 212.919 206.06C211.281 206.136 209.676 205.592 208.436 204.539C207.196 203.486 206.415 202.006 206.257 200.405C206.098 198.804 206.573 197.204 207.583 195.937C208.593 194.67 210.061 193.832 211.684 193.597C213.306 193.362 214.958 193.748 216.299 194.675C217.639 195.602 218.565 196.999 218.885 198.577C218.967 198.984 219.008 199.398 219.007 199.813Z" fill="#3F3D56"/>
<path d="M136.131 181.492C136.128 183.101 135.493 184.647 134.36 185.81C133.227 186.972 131.681 187.663 130.043 187.739C128.405 187.815 126.8 187.271 125.56 186.218C124.32 185.165 123.54 183.685 123.381 182.084C123.222 180.483 123.697 178.883 124.707 177.616C125.718 176.349 127.186 175.511 128.808 175.276C130.43 175.041 132.083 175.427 133.423 176.354C134.763 177.281 135.689 178.678 136.009 180.256C136.091 180.663 136.132 181.077 136.131 181.492Z" fill="#3F3D56"/>
<path d="M349.741 259.929C353.286 259.929 356.161 257.11 356.161 253.631C356.161 250.153 353.286 247.333 349.741 247.333C346.195 247.333 343.321 250.153 343.321 253.631C343.321 257.11 346.195 259.929 349.741 259.929Z" fill="#3F3D56"/>
<path d="M248.772 202.676C253.93 202.676 258.11 198.575 258.11 193.515C258.11 188.456 253.93 184.355 248.772 184.355C243.615 184.355 239.434 188.456 239.434 193.515C239.434 198.575 243.615 202.676 248.772 202.676Z" fill="#3F3D56"/>
<path d="M501.305 326.824L0.694915 327C0.603657 327 0.51329 326.982 0.428979 326.948C0.344667 326.914 0.268065 326.864 0.203536 326.8C0.139006 326.737 0.0878128 326.662 0.0528898 326.579C0.0179669 326.497 0 326.408 0 326.318C0 326.229 0.0179669 326.14 0.0528898 326.057C0.0878128 325.975 0.139006 325.9 0.203536 325.836C0.268065 325.773 0.344667 325.723 0.428979 325.689C0.51329 325.654 0.603657 325.637 0.694915 325.637L501.305 325.461C501.489 325.461 501.665 325.533 501.795 325.661C501.925 325.789 501.998 325.962 501.998 326.142C501.998 326.323 501.925 326.496 501.795 326.624C501.665 326.752 501.489 326.824 501.305 326.824Z" fill="#CACACA"/>
</svg>
