<svg width="645" height="524" viewBox="0 0 645 524" fill="none" xmlns="http://www.w3.org/2000/svg">
<g clip-path="url(#clip0_39_86)">
<path d="M578.634 511.568C564.168 524.019 545.421 524.644 527.3 523.115C524.77 522.901 522.258 522.651 519.768 522.381C519.753 522.376 519.734 522.378 519.718 522.373C519.599 522.36 519.479 522.346 519.364 522.338C518.851 522.281 518.337 522.223 517.828 522.166L517.948 522.44L518.325 523.29C518.19 523.006 518.054 522.727 517.919 522.442C517.879 522.357 517.834 522.272 517.794 522.186C513.1 512.426 508.444 502.307 507.256 491.161C506.029 479.593 509.479 466.494 518 460.808C519.118 460.064 520.301 459.472 521.529 459.042C522.038 458.857 522.555 458.707 523.077 458.574C526.273 457.726 529.6 457.911 532.717 459.108C535.833 460.306 538.626 462.474 540.809 465.389C542.992 468.305 544.485 471.862 545.136 475.695C545.786 479.529 545.571 483.5 544.511 487.201C551.735 478.35 550.388 463.99 547.896 451.99C545.399 439.989 542.376 426.636 547.455 415.857C550.278 409.857 555.242 406.135 560.814 404.635C560.985 404.591 561.155 404.547 561.326 404.509C567.965 402.903 574.866 404.348 580.651 408.555C591.304 416.576 596.776 431.784 598.552 446.682C601.413 470.655 595.081 497.409 578.634 511.568Z" fill="#F2F2F2"/>
<path d="M573.964 473.138C573.544 478.426 572.48 483.613 570.808 488.534C569.266 492.889 567.188 496.944 564.643 500.565C559.352 507.965 552.65 513.738 545.103 517.4C539.394 520.193 533.412 522.114 527.3 523.115C524.77 522.902 522.258 522.651 519.768 522.381C519.753 522.377 519.734 522.378 519.718 522.374C519.599 522.36 519.479 522.346 519.364 522.338C518.851 522.281 518.337 522.223 517.828 522.166L517.948 522.44L518.325 523.29C518.19 523.006 518.054 522.727 517.919 522.442C517.879 522.357 517.834 522.272 517.794 522.186C522.376 516.731 525.798 510.044 527.771 502.684C529.745 495.324 530.213 487.506 529.137 479.886C528.011 472.319 525.404 465.177 521.529 459.042C522.038 458.857 522.555 458.707 523.077 458.574C524.55 460.98 525.842 463.536 526.938 466.214C530.87 475.763 532.124 486.57 530.515 497.037C529.02 506.509 525.293 515.274 519.774 522.304C520.257 522.263 520.745 522.216 521.223 522.164C530.268 521.248 539.295 518.925 547.499 514.166C554.512 510.196 560.6 504.228 565.228 496.785C570.197 488.597 572.386 478.749 572.762 468.739C573.052 457.955 572.106 447.174 569.951 436.696C567.861 426.012 564.684 415.674 560.492 405.912C560.399 405.691 560.38 405.435 560.439 405.197C560.499 404.96 560.633 404.758 560.814 404.636C560.964 404.514 561.148 404.469 561.326 404.509C561.414 404.537 561.495 404.588 561.563 404.658C561.632 404.728 561.686 404.816 561.722 404.914C562.239 406.12 562.747 407.327 563.235 408.547C567.301 418.711 570.294 429.439 572.147 440.485C573.945 451.14 574.905 462.287 573.964 473.138Z" fill="white"/>
<path d="M26.9102 166.552C26.4796 166.551 26.0527 166.455 25.6516 166.268C25.0028 165.97 24.4452 165.443 24.0529 164.758C23.6605 164.072 23.452 163.26 23.455 162.43V119.419C23.4536 117.963 22.969 116.567 22.1074 115.538C21.2458 114.508 20.0777 113.929 18.8592 113.928H11.4876C8.44198 113.923 5.52203 112.476 3.36841 109.903C1.2148 107.33 0.00339818 103.841 -1.52588e-05 100.202V13.7258C0.00340021 10.0867 1.2148 6.59789 3.36841 4.02469C5.52203 1.4515 8.44198 0.00407847 11.4876 0H271.503C274.549 0.0040833 277.469 1.4515 279.622 4.02469C281.776 6.59789 282.987 10.0867 282.991 13.7258V100.202C282.987 103.841 281.776 107.33 279.622 109.903C277.469 112.476 274.549 113.923 271.503 113.928H70.8082C70.1711 113.928 69.5411 114.087 68.958 114.394C68.3749 114.7 67.8513 115.148 67.4203 115.708L29.4412 165.212C29.1205 165.634 28.7298 165.97 28.294 166.201C27.8581 166.432 27.3869 166.551 26.9102 166.552ZM11.4876 1.82897C8.84782 1.83253 6.31697 3.08709 4.45033 5.3174C2.58369 7.54771 1.53371 10.5716 1.53072 13.7258V100.202C1.53371 103.356 2.5837 106.38 4.45033 108.61C6.31697 110.84 8.84782 112.095 11.4876 112.099H18.8592C20.4835 112.101 22.0408 112.873 23.1893 114.245C24.3379 115.617 24.9839 117.478 24.9857 119.419V162.43C24.9857 162.891 25.1023 163.341 25.3202 163.722C25.538 164.103 25.8471 164.396 26.2067 164.563C26.5663 164.73 26.9599 164.763 27.3357 164.659C27.7115 164.554 28.0521 164.316 28.3129 163.976L66.2919 114.472C66.8665 113.725 67.5645 113.128 68.3418 112.72C69.1192 112.311 69.959 112.1 70.8082 112.099H271.503C274.143 112.095 276.674 110.84 278.54 108.61C280.407 106.38 281.457 103.356 281.46 100.202V13.7258C281.457 10.5716 280.407 7.54771 278.54 5.3174C276.674 3.08709 274.143 1.83253 271.503 1.82897H11.4876Z" fill="#CCCCCC"/>
<path d="M28.1779 38.948C33.7296 38.948 38.23 33.5707 38.23 26.9375C38.23 20.3042 33.7296 14.9269 28.1779 14.9269C22.6263 14.9269 18.1258 20.3042 18.1258 26.9375C18.1258 33.5707 22.6263 38.948 28.1779 38.948Z" fill="#CCCCCC"/>
<path d="M259.776 93.396H23.2152C22.5106 93.397 21.8128 93.2321 21.1616 92.9106C20.5104 92.5892 19.9187 92.1175 19.4201 91.5226C18.9216 90.9276 18.5262 90.2212 18.2563 89.4435C17.9865 88.6658 17.8476 87.8322 17.8476 86.9904C17.8476 86.1485 17.9865 85.3149 18.2563 84.5373C18.5262 83.7596 18.9216 83.0531 19.4201 82.4582C19.9187 81.8633 20.5104 81.3916 21.1616 81.0701C21.8128 80.7487 22.5106 80.5837 23.2152 80.5847H259.776C260.48 80.5837 261.178 80.7487 261.829 81.0701C262.48 81.3916 263.072 81.8633 263.571 82.4582C264.069 83.0531 264.465 83.7596 264.734 84.5373C265.004 85.3149 265.143 86.1485 265.143 86.9904C265.143 87.8322 265.004 88.6658 264.734 89.4435C264.465 90.2212 264.069 90.9276 263.571 91.5226C263.072 92.1175 262.48 92.5892 261.829 92.9106C261.178 93.2321 260.48 93.397 259.776 93.396Z" fill="#CCCCCC"/>
<path d="M182.709 66.172H23.2152C22.5106 66.173 21.8128 66.0081 21.1616 65.6866C20.5104 65.3651 19.9187 64.8935 19.4201 64.2985C18.9216 63.7036 18.5262 62.9971 18.2563 62.2195C17.9865 61.4418 17.8476 60.6082 17.8476 59.7664C17.8476 58.9245 17.9865 58.0909 18.2563 57.3133C18.5262 56.5356 18.9216 55.8291 19.4201 55.2342C19.9187 54.6393 20.5104 54.1676 21.1616 53.8461C21.8128 53.5247 22.5106 53.3597 23.2152 53.3607H182.709C183.414 53.3597 184.112 53.5247 184.763 53.8461C185.414 54.1676 186.006 54.6393 186.504 55.2342C187.003 55.8291 187.398 56.5356 187.668 57.3133C187.938 58.0909 188.077 58.9245 188.077 59.7664C188.077 60.6082 187.938 61.4418 187.668 62.2195C187.398 62.9971 187.003 63.7036 186.504 64.2985C186.006 64.8935 185.414 65.3651 184.763 65.6866C184.112 66.0081 183.414 66.173 182.709 66.172Z" fill="#CCCCCC"/>
<path d="M26.9102 471.62C26.4796 471.62 26.0527 471.524 25.6516 471.336C25.0028 471.039 24.4453 470.512 24.0529 469.827C23.6606 469.141 23.452 468.329 23.455 467.499V424.488C23.4536 423.032 22.969 421.636 22.1074 420.607C21.2458 419.577 20.0777 418.998 18.8592 418.996H11.4876C8.44198 418.992 5.52204 417.545 3.36843 414.972C1.21482 412.399 0.0034101 408.91 -1.14441e-05 405.271V318.795C0.00340402 315.156 1.2148 311.667 3.36842 309.094C5.52203 306.52 8.44198 305.073 11.4876 305.069H271.503C274.549 305.073 277.469 306.52 279.622 309.094C281.776 311.667 282.987 315.156 282.991 318.795V405.271C282.987 408.91 281.776 412.399 279.622 414.972C277.469 417.545 274.549 418.992 271.503 418.996H70.8082C70.1711 418.997 69.5411 419.156 68.958 419.462C68.3749 419.769 67.8513 420.217 67.4202 420.777L29.4412 470.281C29.1205 470.703 28.7298 471.039 28.294 471.27C27.8581 471.5 27.3869 471.62 26.9102 471.62ZM11.4876 306.898C8.84782 306.901 6.31697 308.156 4.45033 310.386C2.5837 312.617 1.53371 315.64 1.53073 318.795V405.271C1.53371 408.425 2.5837 411.449 4.45033 413.679C6.31697 415.909 8.84783 417.164 11.4876 417.167H18.8592C20.4835 417.17 22.0408 417.942 23.1893 419.314C24.3379 420.686 24.9839 422.547 24.9857 424.488V467.499C24.9857 467.96 25.1023 468.41 25.3202 468.791C25.538 469.171 25.847 469.465 26.2067 469.632C26.5663 469.799 26.9599 469.832 27.3357 469.728C27.7115 469.623 28.0521 469.385 28.3129 469.045L66.2919 419.541C66.8665 418.794 67.5645 418.197 68.3418 417.789C69.1191 417.38 69.959 417.169 70.8082 417.167H271.503C274.143 417.164 276.674 415.909 278.54 413.679C280.407 411.449 281.457 408.425 281.46 405.271V318.795C281.457 315.641 280.407 312.617 278.54 310.386C276.674 308.156 274.143 306.901 271.503 306.898L11.4876 306.898Z" fill="#CCCCCC"/>
<path d="M410.883 313.081C410.407 313.08 409.935 312.961 409.5 312.73C409.064 312.5 408.673 312.163 408.353 311.742L370.373 262.238C369.942 261.677 369.419 261.229 368.836 260.923C368.253 260.616 367.623 260.458 366.986 260.457H166.291C163.245 260.453 160.325 259.005 158.171 256.432C156.018 253.859 154.806 250.37 154.803 246.731V160.255C154.806 156.616 156.018 153.127 158.171 150.554C160.325 147.981 163.245 146.533 166.291 146.529H426.306C429.352 146.533 432.272 147.981 434.425 150.554C436.579 153.127 437.79 156.616 437.794 160.255V246.731C437.79 250.37 436.579 253.859 434.425 256.432C432.272 259.005 429.352 260.453 426.306 260.457H418.935C417.716 260.459 416.548 261.038 415.686 262.067C414.825 263.097 414.34 264.492 414.339 265.948V308.959C414.342 309.79 414.133 310.602 413.741 311.287C413.348 311.972 412.791 312.499 412.142 312.796C411.741 312.984 411.314 313.08 410.883 313.081ZM166.291 148.358C163.651 148.362 161.12 149.616 159.253 151.847C157.387 154.077 156.337 157.101 156.334 160.255V246.731C156.337 249.885 157.387 252.909 159.253 255.139C161.12 257.37 163.651 258.624 166.291 258.628H366.986C367.835 258.629 368.675 258.84 369.452 259.249C370.229 259.658 370.927 260.254 371.502 261.002L409.481 310.506C409.742 310.846 410.082 311.083 410.458 311.188C410.834 311.293 411.227 311.259 411.587 311.092C411.947 310.925 412.256 310.632 412.473 310.251C412.691 309.871 412.808 309.42 412.808 308.959V265.948C412.81 264.007 413.456 262.147 414.604 260.774C415.753 259.402 417.31 258.63 418.935 258.628H426.306C428.946 258.624 431.477 257.37 433.343 255.139C435.21 252.909 436.26 249.885 436.263 246.731V160.255C436.26 157.101 435.21 154.077 433.343 151.847C431.477 149.616 428.946 148.362 426.306 148.358L166.291 148.358Z" fill="#3F3D56"/>
<path d="M28.1779 344.017C33.7296 344.017 38.23 338.639 38.23 332.006C38.23 325.373 33.7296 319.996 28.1779 319.996C22.6263 319.996 18.1258 325.373 18.1258 332.006C18.1258 338.639 22.6263 344.017 28.1779 344.017Z" fill="#CCCCCC"/>
<path d="M259.776 398.465H23.2152C22.5106 398.466 21.8128 398.301 21.1616 397.979C20.5104 397.658 19.9187 397.186 19.4201 396.591C18.9216 395.996 18.5262 395.29 18.2563 394.512C17.9865 393.734 17.8476 392.901 17.8476 392.059C17.8476 391.217 17.9865 390.384 18.2563 389.606C18.5262 388.828 18.9216 388.122 19.4201 387.527C19.9187 386.932 20.5104 386.46 21.1616 386.139C21.8128 385.817 22.5106 385.652 23.2152 385.653H259.776C261.197 385.653 262.561 386.328 263.567 387.53C264.572 388.731 265.137 390.36 265.137 392.059C265.137 393.758 264.572 395.387 263.567 396.588C262.561 397.79 261.197 398.465 259.776 398.465Z" fill="#CCCCCC"/>
<path d="M182.709 371.241H23.2152C22.5106 371.242 21.8128 371.077 21.1616 370.755C20.5104 370.434 19.9187 369.962 19.4201 369.367C18.9216 368.772 18.5262 368.066 18.2563 367.288C17.9865 366.511 17.8476 365.677 17.8476 364.835C17.8476 363.993 17.9865 363.16 18.2563 362.382C18.5262 361.604 18.9216 360.898 19.4201 360.303C19.9187 359.708 20.5104 359.236 21.1616 358.915C21.8128 358.593 22.5106 358.428 23.2152 358.429H182.709C183.414 358.428 184.112 358.593 184.763 358.915C185.414 359.236 186.006 359.708 186.504 360.303C187.003 360.898 187.398 361.604 187.668 362.382C187.938 363.16 188.077 363.993 188.077 364.835C188.077 365.677 187.938 366.511 187.668 367.288C187.398 368.066 187.003 368.772 186.504 369.367C186.006 369.962 185.414 370.434 184.763 370.755C184.112 371.077 183.414 371.242 182.709 371.241Z" fill="#CCCCCC"/>
<path d="M182.981 184.676C188.533 184.676 193.033 179.299 193.033 172.666C193.033 166.033 188.533 160.655 182.981 160.655C177.429 160.655 172.929 166.033 172.929 172.666C172.929 179.299 177.429 184.676 182.981 184.676Z" fill="#3F3D56"/>
<path d="M414.579 239.124H178.018C176.596 239.124 175.233 238.449 174.227 237.248C173.222 236.047 172.657 234.417 172.657 232.719C172.657 231.02 173.222 229.39 174.227 228.189C175.233 226.988 176.596 226.313 178.018 226.313H414.579C416 226.313 417.364 226.988 418.369 228.189C419.375 229.39 419.94 231.02 419.94 232.719C419.94 234.417 419.375 236.047 418.369 237.248C417.364 238.449 416 239.124 414.579 239.124Z" fill="#6C63FF"/>
<path d="M337.512 211.9H178.018C177.314 211.901 176.616 211.736 175.965 211.415C175.313 211.094 174.722 210.622 174.223 210.027C173.725 209.432 173.329 208.726 173.059 207.948C172.79 207.17 172.651 206.337 172.651 205.495C172.651 204.653 172.79 203.819 173.059 203.042C173.329 202.264 173.725 201.557 174.223 200.963C174.722 200.368 175.313 199.896 175.965 199.575C176.616 199.253 177.314 199.088 178.018 199.089H337.512C338.217 199.088 338.915 199.253 339.566 199.575C340.217 199.896 340.809 200.368 341.307 200.963C341.806 201.557 342.201 202.264 342.471 203.042C342.741 203.819 342.88 204.653 342.88 205.495C342.88 206.337 342.741 207.17 342.471 207.948C342.201 208.726 341.806 209.432 341.307 210.027C340.809 210.622 340.217 211.094 339.566 211.415C338.915 211.736 338.217 211.901 337.512 211.9Z" fill="#6C63FF"/>
<path d="M414.476 329.543C414.705 328.227 415.174 326.987 415.848 325.91C416.522 324.834 417.385 323.947 418.377 323.313C419.369 322.678 420.466 322.311 421.589 322.238C422.713 322.165 423.836 322.386 424.88 322.888L442.835 298.237L446.649 314.596L429.014 335.497C428.192 337.536 426.774 339.145 425.026 340.019C423.278 340.892 421.323 340.969 419.531 340.235C417.739 339.501 416.235 338.007 415.303 336.037C414.371 334.066 414.077 331.755 414.476 329.543Z" fill="#FFB8B8"/>
<path d="M513.02 213.863C523.402 213.863 531.818 203.807 531.818 191.402C531.818 178.998 523.402 168.942 513.02 168.942C502.638 168.942 494.222 178.998 494.222 191.402C494.222 203.807 502.638 213.863 513.02 213.863Z" fill="#FFB8B8"/>
<path d="M490.936 500.564L481.553 500.563L477.089 457.319L490.938 457.32L490.936 500.564Z" fill="#FFB8B8"/>
<path d="M493.329 511.432L463.074 511.431V510.974C463.073 509.126 463.378 507.296 463.97 505.589C464.562 503.882 465.429 502.331 466.523 501.024C467.616 499.718 468.914 498.681 470.343 497.974C471.772 497.267 473.303 496.903 474.85 496.903H474.851L493.33 496.904L493.329 511.432Z" fill="#2F2E41"/>
<path d="M519.254 512.453L509.872 512.452L508.572 470.241L519.257 469.208L519.254 512.453Z" fill="#FFB8B8"/>
<path d="M521.648 523.321L491.392 523.319V522.862C491.392 521.014 491.697 519.185 492.289 517.477C492.88 515.77 493.748 514.219 494.841 512.912C495.935 511.606 497.233 510.57 498.662 509.862C500.091 509.155 501.622 508.791 503.169 508.792H503.169L521.648 508.792L521.648 523.321Z" fill="#2F2E41"/>
<path d="M516.586 504.561L509.279 503.533C508.45 503.414 507.686 502.941 507.126 502.201C506.567 501.46 506.251 500.503 506.237 499.506L504.868 385.8C504.864 385.478 504.766 385.168 504.59 384.924C504.414 384.68 504.172 384.518 503.906 384.466C503.641 384.414 503.368 384.475 503.136 384.639C502.904 384.803 502.728 385.059 502.638 385.362L492.5 419.563L493.225 483.67C493.238 484.728 492.908 485.751 492.305 486.527C491.703 487.302 490.873 487.77 489.989 487.833L480.449 488.317C479.577 488.377 478.718 488.04 478.044 487.374C477.371 486.708 476.933 485.763 476.818 484.728L471.836 412.209L471.833 412.163L479.392 336.426L536.17 341.334L520.409 500.957C520.309 501.957 519.906 502.879 519.276 503.548C518.646 504.217 517.833 504.588 516.99 504.59C516.855 504.59 516.72 504.58 516.586 504.561Z" fill="#2F2E41"/>
<path d="M479.635 343.14C479.125 342.815 478.692 342.341 478.377 341.763C478.062 341.184 477.875 340.52 477.832 339.832C477.832 339.832 482.938 301.895 484.809 301.183L480.715 260.613C480.225 255.665 480.567 250.65 481.721 245.862C482.875 241.074 484.818 236.609 487.436 232.731C489.957 228.968 493.09 225.854 496.646 223.578C500.202 221.302 504.107 219.91 508.125 219.487C508.697 219.425 509.266 219.378 509.832 219.345C514.676 219.036 519.511 220.128 523.927 222.529C528.342 224.93 532.206 228.569 535.192 233.138C538.289 237.745 540.409 243.178 541.371 248.975C542.333 254.771 542.109 260.76 540.718 266.431L538.422 275.977V342.695C538.419 343.346 538.289 343.987 538.042 344.568C537.794 345.148 537.436 345.651 536.997 346.036C529.847 352.305 521.768 354.521 513.917 354.521C499.06 354.521 485.018 346.584 479.635 343.14Z" fill="#6C63FF"/>
<path d="M435.558 330.931L425.682 322.108C425.295 321.762 424.973 321.322 424.737 320.818C424.502 320.313 424.357 319.755 424.314 319.179C424.271 318.604 424.33 318.023 424.487 317.477C424.644 316.93 424.896 316.429 425.226 316.006L484.054 240.585C485.943 238.185 488.489 236.674 491.23 236.325C493.972 235.977 496.727 236.815 498.995 238.687L498.995 238.687C500.378 239.839 501.53 241.34 502.372 243.084C503.213 244.829 503.722 246.773 503.863 248.779C504.004 250.786 503.772 252.804 503.186 254.692C502.599 256.579 501.672 258.288 500.469 259.699L440.032 330.573C439.501 331.202 438.813 331.605 438.072 331.722C437.331 331.839 436.578 331.663 435.928 331.221C435.8 331.134 435.676 331.037 435.558 330.931Z" fill="#6C63FF"/>
<path d="M511.137 320.945C511.568 319.704 512.223 318.59 513.053 317.684C513.884 316.777 514.871 316.099 515.945 315.697C517.019 315.295 518.153 315.18 519.268 315.359C520.383 315.538 521.452 316.006 522.399 316.732L543.896 296.528L545.082 313.45L524.486 330.042C523.361 331.863 521.715 333.126 519.861 333.594C518.008 334.061 516.075 333.7 514.43 332.578C512.784 331.457 511.54 329.654 510.933 327.509C510.326 325.365 510.399 323.03 511.137 320.945Z" fill="#FFB8B8"/>
<path d="M530.377 328.833C529.808 328.621 529.296 328.236 528.89 327.715C528.484 327.194 528.199 326.555 528.064 325.861L525.892 314.964C525.733 314.191 525.768 313.378 525.993 312.628C526.217 311.878 526.622 311.224 527.155 310.747L541.765 291.867L520.275 252.274C518.648 249.881 517.732 246.911 517.668 243.829C517.604 240.748 518.396 237.727 519.921 235.241C521.137 233.26 522.77 231.698 524.654 230.713C526.538 229.728 528.606 229.356 530.649 229.634C532.692 229.912 534.637 230.83 536.287 232.296C537.938 233.761 539.235 235.722 540.047 237.979L560.026 284.444C562.012 289.061 562.507 294.389 561.418 299.414C560.328 304.438 557.729 308.809 554.116 311.691L533.699 327.988C533.074 328.656 532.264 329.026 531.425 329.027C531.07 329.027 530.716 328.961 530.377 328.833Z" fill="#6C63FF"/>
<path d="M526.949 211.482C526.506 211.799 526.008 211.991 525.493 212.042C524.978 212.092 524.46 212.001 523.98 211.774C523.499 211.547 523.069 211.191 522.722 210.734C522.375 210.277 522.121 209.73 521.979 209.136L521.968 209.08C521.585 207.211 521.887 205.255 521.986 203.335C522.085 201.415 521.918 199.307 520.817 197.902C518.766 195.284 515.143 196.702 512.191 196.056C510.461 195.606 508.928 194.419 507.878 192.716C506.828 191.013 506.333 188.911 506.487 186.804C506.527 186.405 506.591 186.005 506.663 185.605C506.843 184.593 506.824 183.544 506.608 182.541C506.391 181.539 505.983 180.61 505.416 179.828C504.849 179.045 504.137 178.431 503.338 178.032C502.538 177.634 501.672 177.462 500.807 177.531C497.827 177.753 494.615 178.853 492.137 176.231C491.228 175.196 490.594 173.864 490.315 172.402C490.035 170.94 490.122 169.411 490.565 168.008C491.952 163.142 495.92 160.574 499.853 159.151C504.716 157.439 509.838 157.042 514.846 157.991C519.854 158.94 524.622 161.211 528.804 164.637C531.301 166.717 533.636 169.334 534.711 172.737C535.787 176.139 535.295 180.442 532.914 182.708C534.778 185.041 536.096 187.918 536.736 191.051C537.376 194.184 537.316 197.463 536.561 200.559C535.401 205.113 529.784 209.509 526.949 211.482Z" fill="#2F2E41"/>
<path d="M645 523.085C644.999 523.328 644.919 523.56 644.775 523.731C644.632 523.903 644.437 523.999 644.235 524H352.629C352.426 524 352.231 523.904 352.088 523.732C351.944 523.561 351.863 523.328 351.863 523.085C351.863 522.843 351.944 522.61 352.088 522.439C352.231 522.267 352.426 522.171 352.629 522.171H644.235C644.437 522.172 644.632 522.268 644.775 522.439C644.919 522.611 644.999 522.843 645 523.085Z" fill="#3F3D56"/>
</g>
<defs>
<clipPath id="clip0_39_86">
<rect width="645" height="524" fill="white"/>
</clipPath>
</defs>
</svg>
