<svg preserveAspectRatio = "xMidYMin slice" viewBox="0 0 1439 344" fill="none" xmlns="http://www.w3.org/2000/svg">
<path fill-rule="evenodd" clip-rule="evenodd" d="M0 0L34.7758 24.5714C68.3525 49.1429 136.705 98.2857 205.057 122.857C274.609 147.429 348 135 411.314 114.667C479.667 81.9048 548.019 16.381 616.372 8.19048C684.724 0 754.276 49.1429 822.628 49.1429C890.981 49.1429 959.333 0 1027.69 32.7619C1096.04 65.5238 1174.95 126.81 1244.5 135C1312.85 143.19 1370.65 98.2857 1404.22 49.1429L1439 0V344H1404.22C1370.65 344 1302.3 344 1233.94 344C1164.39 344 1096.04 344 1027.69 344C959.333 344 890.981 344 822.628 344C754.276 344 684.724 344 616.372 344C548.019 344 479.667 344 411.314 344C342.962 344 274.609 344 205.057 344C136.705 344 68.3525 344 34.7758 344H0V0Z" fill="#6C63FF"/>
</svg>
