<svg preserveAspectRatio="xMidYMax slice" viewBox="0 0 1440 213" fill="none" xmlns="http://www.w3.org/2000/svg">
<path fill-rule="evenodd" clip-rule="evenodd" d="M0 143.818H48.0801C96.1603 143.818 192.321 143.818 288.481 125.841C383.439 107.864 479.599 71.9092 575.76 53.9319C671.92 35.9546 768.08 35.9546 864.24 71.9092C960.401 107.864 1056.56 179.773 1151.52 202.744C1247.68 226.714 1343.84 202.744 1391.92 190.759L1440 179.773V0H1391.92C1343.84 0 1247.68 0 1151.52 0C1056.56 0 960.401 0 864.24 0C768.08 0 671.92 0 575.76 0C479.599 0 383.439 0 288.481 0C192.321 0 96.1603 0 48.0801 0H0V143.818Z" fill="#6C63FF"/>
</svg>
