<svg preserveAspectRatio="xMidYMin slice" viewBox="0 0 1440 360" fill="none" xmlns="http://www.w3.org/2000/svg">
<path fill-rule="evenodd" clip-rule="evenodd" d="M0 0L34.8 36C68.4 72 136.8 144 205.2 150C274.8 156 343.2 96 411.6 96C480 96 548.4 156 616.8 186C685.2 216 754.8 216 823.2 192C891.6 168 960 120 1028.4 120C1096.8 120 1165.2 168 1234.8 174C1303.2 180 1371.6 144 1405.2 126L1440 108V360H1405.2C1371.6 360 1303.2 360 1234.8 360C1165.2 360 1096.8 360 1028.4 360C960 360 891.6 360 823.2 360C754.8 360 685.2 360 616.8 360C548.4 360 480 360 411.6 360C343.2 360 274.8 360 205.2 360C136.8 360 68.4 360 34.8 360H0V0Z" fill="#6C63FF"/>
</svg>
